<svg width="170" height="157" viewBox="0 0 170 157" fill="none" xmlns="http://www.w3.org/2000/svg">
<path fill-rule="evenodd" clip-rule="evenodd" d="M37.6256 40.1725C38.1608 39.3733 38.1483 38.2962 38.1581 37.9191C38.194 36.5598 37.8406 35.064 37.4773 33.7717C37.07 32.3228 36.7698 30.8406 36.3628 29.3925C35.6209 26.7526 34.3959 24.1925 33.4533 21.617C32.9581 20.2637 32.5014 17.4113 30.4733 18.246C28.0636 19.2377 27.2251 21.6884 27.7173 24.1521C27.9248 25.1899 28.5166 26.1081 28.9612 27.0529C29.7201 28.6648 30.5472 30.1931 31.3872 31.7612C31.8526 32.6299 32.286 33.5183 32.785 34.3719C33.7475 36.0175 34.3808 38.1302 35.6673 39.539C35.9087 39.8033 37.0904 40.972 37.6256 40.1725Z" fill="white"/>
<path fill-rule="evenodd" clip-rule="evenodd" d="M28.9159 46.4217C28.9144 45.4585 28.2785 44.3526 27.718 43.6381C26.3564 41.9033 24.1059 39.7892 21.2786 37.7571C16.5851 34.3823 15.8836 33.9266 14.4722 35.0949C13.7522 35.6909 13.5998 39.021 16.3498 41.2732C20.2678 44.4819 24.6177 47.2791 26.0547 47.8045C26.4779 47.9591 28.9193 48.4281 28.9159 46.4217Z" fill="white"/>
<path fill-rule="evenodd" clip-rule="evenodd" d="M62.913 28.2789L25.7005 132.463C25.7005 132.463 20.3506 157.56 45.1993 152.594L146.565 104.979C146.565 104.979 175.97 90.9247 149.202 69.5729L100.492 23.3407C100.492 23.3407 75.2881 1.32006 62.913 28.2789Z" fill="#FFE6A5"/>
<path fill-rule="evenodd" clip-rule="evenodd" d="M134.577 50.8692C134.577 50.8692 52.2894 44.9707 42.5803 44.6503C32.8712 44.3296 30.0745 54.72 30.3827 58.9737L27.3118 100.269C27.3118 100.269 24.3306 112.379 43.9355 114.361L72.5027 117.898C72.5027 117.898 76.1182 128.983 70.9578 137.325C70.9578 137.325 70.1536 140.438 74.2588 139.381C78.3635 138.324 92.6039 128.272 94.1344 119.316C94.151 119.221 118.2 119.426 125.662 119.794C133.124 120.162 138.93 118.543 139.752 111.533L140.958 103.248L146.653 64.1415C146.653 64.1415 148.852 50.1797 134.577 50.8692Z" fill="#CADBFE"/>
<g filter="url(#filter0_d)">
<path d="M88.4045 84.205C88.252 86.379 87.3658 88.139 85.7481 89.4803C84.1288 90.824 82.182 91.414 79.9089 91.2537C77.7722 91.103 75.9612 90.248 74.4771 88.6858C72.993 87.1254 72.3264 85.2904 72.4739 83.1808L72.9449 76.4599C73.1483 73.5614 73.6959 71.7124 74.5889 70.914C75.4812 70.1172 76.2657 69.609 76.9446 69.3916C77.6219 69.1753 79.9944 68.8963 84.0634 68.5528C88.1307 68.211 90.3183 65.865 90.6234 61.5159C90.7665 59.4742 90.0859 57.7378 88.5828 56.3067C87.0785 54.8768 85.0429 54.0706 82.477 53.8896C80.6722 53.7624 79.0512 54.0123 77.6129 54.6393C76.173 55.2674 74.6263 56.4491 72.9718 58.1855L71.3971 59.7627C69.68 61.3641 67.7467 62.088 65.5965 61.9362C63.5151 61.7894 61.86 61.0117 60.6352 59.5997C59.4087 58.1894 58.8728 56.3964 59.0253 54.2218C59.3394 49.7416 61.9723 45.987 66.9275 42.9596C71.881 39.9317 77.5146 38.6402 83.8293 39.0857C91.323 39.614 97.3242 42.0239 101.835 46.3148C106.344 50.6056 108.381 55.8815 107.941 62.1407C107.544 67.8082 105.81 71.89 102.742 74.3884C99.6722 76.888 97.3315 78.4608 95.7172 79.1079C94.1029 79.7562 91.7409 80.3669 88.6336 80.9424L88.4045 84.205ZM79.5558 96.2948C82.039 96.4702 84.1003 97.4597 85.7425 99.2639C87.3842 101.068 88.1218 103.156 87.9558 105.529C87.7893 107.9 86.7701 109.833 84.8971 111.322C83.0241 112.812 80.813 113.468 78.2617 113.288C75.8467 113.117 73.8345 112.146 72.2264 110.379C70.6165 108.612 69.8935 106.573 70.055 104.266C70.2215 101.895 71.2412 99.9301 73.1187 98.3736C74.9956 96.817 77.1408 96.1245 79.5558 96.2948Z" fill="#CADBFE"/>
<path d="M91.3899 84.4155C91.2373 86.5895 90.3511 88.3494 88.7335 89.6908C87.1141 91.0344 85.1674 91.6244 82.8943 91.4642C80.7575 91.3134 78.9465 90.4584 77.4624 88.8963C75.9783 87.3358 75.3117 85.5008 75.4592 83.3913L75.9303 76.6704C76.1337 73.7719 76.6813 71.9229 77.5742 71.1244C78.4666 70.3277 79.2511 69.8195 79.93 69.6021C80.6067 69.3858 82.9798 69.1068 87.0488 68.7633C91.1161 68.4215 93.3037 66.0755 93.6088 61.7264C93.7518 59.6846 93.0712 57.9482 91.5681 56.5172C90.0639 55.0873 88.0283 54.281 85.4624 54.1C83.6576 53.9728 82.0366 54.2227 80.5983 54.8497C79.1583 55.4778 77.6116 56.6595 75.9571 58.3959L74.3825 59.9732C72.6654 61.5745 70.732 62.2985 68.5819 62.1466C66.5004 61.9998 64.8454 61.2221 63.6205 59.8101C62.394 58.3998 61.8582 56.6069 62.0107 54.4323C62.3247 49.9521 64.9577 46.1974 69.9129 43.1701C74.8664 40.1422 80.4999 38.8507 86.8146 39.2961C94.3083 39.8245 100.31 42.2344 104.82 46.5252C109.33 50.8161 111.366 56.0919 110.927 62.3511C110.53 68.0186 108.795 72.1005 105.727 74.5989C102.658 77.0984 100.317 78.6712 98.7025 79.3184C97.0882 79.9666 94.7263 80.5774 91.619 81.1528L91.3899 84.4155ZM82.5406 96.5047C85.0238 96.6795 87.0851 97.6696 88.7273 99.4738C90.369 101.278 91.1066 103.366 90.9406 105.739C90.7741 108.11 89.7549 110.043 87.8819 111.532C86.0089 113.021 83.7978 113.678 81.2465 113.498C78.8314 113.327 76.8193 112.356 75.2111 110.589C73.6013 108.821 72.8777 106.783 73.0398 104.476C73.2063 102.104 74.226 100.14 76.1035 98.5835C77.9804 97.0275 80.1256 96.3344 82.5406 96.5047Z" fill="#669AFE"/>
</g>
<path fill-rule="evenodd" clip-rule="evenodd" d="M49.2043 38.9315C50.0137 38.413 50.6028 37.281 50.9026 36.4233C51.631 34.3401 52.2009 31.3008 52.3928 27.8183C52.7115 22.036 52.7183 21.1979 50.9773 20.6313C50.0891 20.3424 47.206 22.0012 46.7877 25.537C46.1922 30.5743 46.1752 35.7557 46.5045 37.2538C46.6018 37.6948 47.5183 40.0117 49.2043 38.9315Z" fill="white"/>
<defs>
<filter id="filter0_d" x="59" y="39" width="71.9852" height="94.5268" filterUnits="userSpaceOnUse" color-interpolation-filters="sRGB">
<feFlood flood-opacity="0" result="BackgroundImageFix"/>
<feColorMatrix in="SourceAlpha" type="matrix" values="0 0 0 0 0 0 0 0 0 0 0 0 0 0 0 0 0 0 127 0"/>
<feOffset dx="10" dy="10"/>
<feGaussianBlur stdDeviation="5"/>
<feColorMatrix type="matrix" values="0 0 0 0 0.707438 0 0 0 0 0.781544 0 0 0 0 0.925398 0 0 0 1 0"/>
<feBlend mode="normal" in2="BackgroundImageFix" result="effect1_dropShadow"/>
<feBlend mode="normal" in="SourceGraphic" in2="effect1_dropShadow" result="shape"/>
</filter>
</defs>
</svg>
