<svg width="11" height="11" viewBox="0 0 11 11" fill="none" xmlns="http://www.w3.org/2000/svg">
<path d="M10 5.25001C10.0017 5.90995 9.84753 6.56096 9.55 7.15001C9.19722 7.85589 8.65488 8.4496 7.98372 8.86465C7.31257 9.27971 6.53912 9.49971 5.75 9.50001C5.09007 9.50173 4.43906 9.34755 3.85 9.05001L1 10L1.95 7.15001C1.65247 6.56096 1.49828 5.90995 1.5 5.25001C1.50031 4.46089 1.72031 3.68744 2.13536 3.01629C2.55041 2.34514 3.14413 1.8028 3.85 1.45001C4.43906 1.15248 5.09007 0.998294 5.75 1.00001H6C7.04217 1.05751 8.02652 1.49739 8.76457 2.23544C9.50262 2.97349 9.9425 3.95784 10 5.00001V5.25001Z" fill="white" stroke="white" stroke-linecap="round" stroke-linejoin="round"/>
</svg>
