<svg width="32" height="28" viewBox="0 0 32 28" fill="none" xmlns="http://www.w3.org/2000/svg">
<path d="M1.40552 6.9185H6.69613L19.5144 2.01489C19.724 1.9347 19.9199 2.19417 19.9199 2.41687V19.8749C19.9199 20.0976 19.7228 20.36 19.5144 20.2769L6.69613 15.16H1.40552C1.18086 15.16 1 14.9808 1 14.7581V7.32049C1 7.20913 1.04523 7.10864 1.11853 7.03598C1.19183 6.96332 1.29328 6.91397 1.40552 6.9185V6.9185Z" stroke="white" stroke-width="2" stroke-linecap="round" stroke-linejoin="round"/>
<path d="M9.84592 16.5825L12.9981 23.1494C13.3631 23.9097 12.9538 24.8129 12.1692 25.1355L10.348 25.8842C9.5634 26.2068 8.69003 25.8317 8.34439 25.0626L4.06726 15.5449" stroke="white" stroke-width="2" stroke-linecap="round" stroke-linejoin="round"/>
<path d="M6.60071 6.8916L6.62154 15.0832" stroke="white" stroke-width="2"/>
<path d="M24.6063 7.09154L27.8097 3.61304" stroke="white" stroke-width="2" stroke-linecap="round" stroke-linejoin="round"/>
<path d="M24.6063 15.2L27.8097 18.6785" stroke="white" stroke-width="2" stroke-linecap="round" stroke-linejoin="round"/>
<path d="M25.7434 11.1375L31 11.1546" stroke="white" stroke-width="2" stroke-linecap="round" stroke-linejoin="round"/>
</svg>
