<svg width="24" height="28" viewBox="0 0 24 28" fill="none" xmlns="http://www.w3.org/2000/svg">
<path d="M18.0619 1V10.2358C18.0619 13.5941 15.3583 16.2977 12 16.2977C8.64171 16.2977 5.93811 13.5941 5.93811 10.2358V1H18.0619Z" stroke="#CADBFE" stroke-width="2" stroke-linecap="round" stroke-linejoin="round"/>
<path d="M19.1527 21.7717H4.84705C4.32612 21.7717 3.90381 22.194 3.90381 22.715V25.2273C3.90381 25.7482 4.32612 26.1705 4.84705 26.1705H19.1527C19.6737 26.1705 20.096 25.7482 20.096 25.2273V22.715C20.096 22.194 19.6737 21.7717 19.1527 21.7717Z" stroke="#CADBFE" stroke-width="2" stroke-linecap="round" stroke-linejoin="round"/>
<path d="M18.455 2.92485C19.2102 2.79131 19.9881 2.88515 20.69 3.19443C21.3919 3.50372 21.986 4.01453 22.3971 4.66204C22.8082 5.30955 23.0176 6.06458 22.9989 6.83134C22.9802 7.59809 22.7342 8.342 22.292 8.96869C21.8498 9.59537 21.2314 10.0766 20.5153 10.3513C19.7992 10.6259 19.0176 10.6817 18.2698 10.5115" stroke="#CADBFE" stroke-width="2" stroke-linecap="round" stroke-linejoin="round"/>
<path d="M5.87308 10.4761C5.10571 10.6817 4.29366 10.6463 3.54714 10.3746C2.80061 10.1029 2.15577 9.60804 1.7001 8.95727C1.24442 8.30651 1 7.53131 1 6.73687C1 5.94244 1.24442 5.16723 1.7001 4.51647C2.15577 3.86571 2.80061 3.37089 3.54714 3.09918C4.29366 2.82747 5.10571 2.79201 5.87308 2.99763" stroke="#CADBFE" stroke-width="2" stroke-linecap="round" stroke-linejoin="round"/>
<path d="M9.30103 21.5069V15.771M14.699 15.771V21.5069V15.771Z" stroke="#CADBFE" stroke-width="2" stroke-linecap="round" stroke-linejoin="round"/>
</svg>
