<svg width="18" height="18" viewBox="0 0 18 18" fill="none" xmlns="http://www.w3.org/2000/svg">
<path d="M10.7999 6.29996V2.69998C10.7999 1.9839 10.5155 1.29715 10.0091 0.790807C9.50278 0.284462 8.81603 0 8.09995 0L4.49997 8.09995V17.9999H14.6519C15.086 18.0048 15.5072 17.8526 15.838 17.5715C16.1688 17.2903 16.3868 16.8991 16.4519 16.4699L17.6939 8.36995C17.733 8.11197 17.7156 7.84856 17.6429 7.59798C17.5701 7.34739 17.4438 7.11562 17.2726 6.91872C17.1013 6.72182 16.8894 6.5645 16.6513 6.45765C16.4133 6.35081 16.1548 6.29701 15.8939 6.29996H10.7999ZM4.49997 17.9999H1.79999C1.3226 17.9999 0.864768 17.8102 0.527204 17.4727C0.189641 17.1351 0 16.6773 0 16.1999V9.89994C0 9.42255 0.189641 8.96472 0.527204 8.62715C0.864768 8.28959 1.3226 8.09995 1.79999 8.09995H4.49997" fill="#FFA620"/>
</svg>
