<svg width="24" height="28" viewBox="0 0 24 28" fill="none" xmlns="http://www.w3.org/2000/svg">
<path d="M11.9998 12.9699C15.206 12.9699 17.8051 10.3708 17.8051 7.16462C17.8051 3.95847 15.206 1.35938 11.9998 1.35938C8.79367 1.35938 6.19458 3.95847 6.19458 7.16462C6.19458 10.3708 8.79367 12.9699 11.9998 12.9699Z" stroke="#CADBFE" stroke-width="2" stroke-linecap="round" stroke-linejoin="round"/>
<path d="M21.9722 26.986C21.9722 25.1045 22.2077 22.7009 21.3086 20.0753C20.4095 17.4496 18.3757 14.842 16.8444 13.9934C15.7972 15.7413 13.9102 16.8122 11.8726 16.815C9.88078 16.8141 8.02843 15.7921 6.96553 14.1076C5.4892 14.9708 3.50498 17.5704 2.64168 20.1742C1.77838 22.7779 2.03598 25.1456 2.03598 26.986" stroke="#CADBFE" stroke-width="2" stroke-linecap="round" stroke-linejoin="round"/>
<path d="M12.0066 17.0144L9.25586 19.4222L12.1062 26.8119L14.7436 19.389L12.0066 17.0144Z" stroke="#CADBFE" stroke-width="2" stroke-linecap="round" stroke-linejoin="round"/>
</svg>
