<svg width="30" height="30" viewBox="0 0 30 30" fill="none" xmlns="http://www.w3.org/2000/svg">
<circle cx="15" cy="15" r="15" fill="#AFB3CA"/>
<path d="M11.9907 7H7.37094C7.26801 7 7.18457 7.08398 7.18457 7.18757V11.8622C7.18457 11.9658 7.26801 12.0497 7.37094 12.0497H11.9907C12.0936 12.0497 12.177 11.9658 12.177 11.8622V7.18757C12.177 7.08398 12.0936 7 11.9907 7Z" stroke="white" stroke-width="1.4" stroke-linecap="round" stroke-linejoin="round"/>
<path d="M23.4621 7H18.8424C18.7394 7 18.656 7.08398 18.656 7.18757V11.8622C18.656 11.9658 18.7394 12.0497 18.8424 12.0497H23.4621C23.565 12.0497 23.6485 11.9658 23.6485 11.8622V7.18757C23.6485 7.08398 23.565 7 23.4621 7Z" stroke="white" stroke-width="1.4" stroke-linecap="round" stroke-linejoin="round"/>
<path d="M14.1184 7.03271L16.7174 7.04566V12.4198" stroke="white" stroke-width="1.4" stroke-linecap="round" stroke-linejoin="round"/>
<path d="M16.647 17.5675L16.6598 14.9387H23.535" stroke="white" stroke-width="1.4" stroke-linecap="round" stroke-linejoin="round"/>
<path d="M11.9907 17.9297H7.37094C7.26801 17.9297 7.18457 18.0137 7.18457 18.1173V22.7918C7.18457 22.8954 7.26801 22.9794 7.37094 22.9794H11.9907C12.0936 22.9794 12.177 22.8954 12.177 22.7918V18.1173C12.177 18.0137 12.0936 17.9297 11.9907 17.9297Z" stroke="white" stroke-width="1.4" stroke-linecap="round" stroke-linejoin="round"/>
<path d="M23.4621 17.9297H18.8424C18.7394 17.9297 18.656 18.0137 18.656 18.1173V22.7918C18.656 22.8954 18.7394 22.9794 18.8424 22.9794H23.4621C23.565 22.9794 23.6485 22.8954 23.6485 22.7918V18.1173C23.6485 18.0137 23.565 17.9297 23.4621 17.9297Z" stroke="white" stroke-width="1.4" stroke-linecap="round" stroke-linejoin="round"/>
<path d="M7 14.9841L14.3105 14.9971V22.9871L16.869 23.0001" stroke="white" stroke-width="1.4" stroke-linecap="round" stroke-linejoin="round"/>
</svg>
