<svg width="36" height="36" viewBox="0 0 36 36" fill="none" xmlns="http://www.w3.org/2000/svg">
<circle cx="18" cy="18" r="18" fill="#DBE8FF"/>
<path d="M22.624 14.4C24.0625 14.4 25.2287 13.1912 25.2287 11.7C25.2287 10.2088 24.0625 9 22.624 9C21.1854 9 20.0193 10.2088 20.0193 11.7C20.0193 13.1912 21.1854 14.4 22.624 14.4Z" stroke="#669AFE" stroke-width="2" stroke-linecap="round" stroke-linejoin="round"/>
<path d="M12.2048 20.6998C13.6433 20.6998 14.8095 19.491 14.8095 17.9998C14.8095 16.5086 13.6433 15.2998 12.2048 15.2998C10.7663 15.2998 9.6001 16.5086 9.6001 17.9998C9.6001 19.491 10.7663 20.6998 12.2048 20.6998Z" stroke="#669AFE" stroke-width="2" stroke-linecap="round" stroke-linejoin="round"/>
<path d="M22.624 27.0001C24.0625 27.0001 25.2287 25.7913 25.2287 24.3001C25.2287 22.8089 24.0625 21.6001 22.624 21.6001C21.1854 21.6001 20.0193 22.8089 20.0193 24.3001C20.0193 25.7913 21.1854 27.0001 22.624 27.0001Z" stroke="#669AFE" stroke-width="2" stroke-linecap="round" stroke-linejoin="round"/>
<path d="M14.4536 19.3589L20.3836 22.9409" stroke="#669AFE" stroke-width="2" stroke-linecap="round" stroke-linejoin="round"/>
<path d="M20.375 13.0586L14.4536 16.6406" stroke="#669AFE" stroke-width="2" stroke-linecap="round" stroke-linejoin="round"/>
</svg>
