<svg width="30" height="30" viewBox="0 0 30 30" fill="none" xmlns="http://www.w3.org/2000/svg">
<circle cx="15" cy="15" r="15" fill="#FFD15A"/>
<path fill-rule="evenodd" clip-rule="evenodd" d="M18.2114 14.0641C18.2114 16.2958 16.3861 18.1282 14.1057 18.1282C11.8253 18.1282 10 16.2958 10 14.0641C10 11.8324 11.8253 10 14.1057 10C16.3861 10 18.2114 11.8324 18.2114 14.0641ZM18.1067 18.6449C17.0351 19.5689 15.6362 20.1282 14.1057 20.1282C10.7336 20.1282 8 17.4132 8 14.0641C8 10.715 10.7336 8 14.1057 8C17.4778 8 20.2114 10.715 20.2114 14.0641C20.2114 15.1732 19.9116 16.2128 19.3881 17.1072L23.171 20.5229L21.8307 22.0073L18.1067 18.6449Z" fill="white"/>
</svg>
