<svg width="50" height="39" viewBox="0 0 50 39" fill="none" xmlns="http://www.w3.org/2000/svg">
<path d="M46.5 2C46.5 1.17157 47.1716 0.5 48 0.5C48.8284 0.5 49.5 1.17157 49.5 2H46.5ZM48 27H49.5C49.5 27.8284 48.8284 28.5 48 28.5V27ZM0.939342 28.0607C0.353554 27.4749 0.353554 26.5251 0.939342 25.9393L10.4853 16.3934C11.0711 15.8076 12.0208 15.8076 12.6066 16.3934C13.1924 16.9792 13.1924 17.9289 12.6066 18.5147L4.12132 27L12.6066 35.4853C13.1924 36.0711 13.1924 37.0208 12.6066 37.6066C12.0208 38.1924 11.0711 38.1924 10.4853 37.6066L0.939342 28.0607ZM49.5 2V27H46.5V2H49.5ZM48 28.5H2V25.5H48V28.5Z" fill="#CADBFE"/>
</svg>
