<svg width="50" height="39" viewBox="0 0 50 39" fill="none" xmlns="http://www.w3.org/2000/svg">
<path d="M3.5 2C3.5 1.17157 2.82843 0.5 2 0.5C1.17157 0.5 0.5 1.17157 0.5 2H3.5ZM2 27H0.5C0.5 27.8284 1.17157 28.5 2 28.5L2 27ZM49.0607 28.0607C49.6464 27.4749 49.6464 26.5251 49.0607 25.9393L39.5147 16.3934C38.9289 15.8076 37.9792 15.8076 37.3934 16.3934C36.8076 16.9792 36.8076 17.9289 37.3934 18.5147L45.8787 27L37.3934 35.4853C36.8076 36.0711 36.8076 37.0208 37.3934 37.6066C37.9792 38.1924 38.9289 38.1924 39.5147 37.6066L49.0607 28.0607ZM0.5 2V27H3.5V2H0.5ZM2 28.5H48V25.5H2V28.5Z" fill="#CADBFE"/>
</svg>
