<svg width="30" height="30" viewBox="0 0 30 30" fill="none" xmlns="http://www.w3.org/2000/svg">
<circle cx="15" cy="15" r="15" fill="#669AFE"/>
<path fill-rule="evenodd" clip-rule="evenodd" d="M21.5064 15C21.5064 15.306 21.4794 15.594 21.4434 15.882L23.3424 17.367C23.5134 17.502 23.5584 17.745 23.4504 17.943L21.6504 21.057C21.5694 21.201 21.4164 21.282 21.2634 21.282C21.2094 21.282 21.1554 21.273 21.1014 21.255L18.8604 20.355C18.3924 20.706 17.8884 21.012 17.3394 21.237L16.9974 23.622C16.9704 23.838 16.7814 24 16.5564 24H12.9564C12.7314 24 12.5424 23.838 12.5154 23.622L12.1734 21.237C11.6244 21.012 11.1204 20.715 10.6524 20.355L8.4114 21.255C8.3664 21.273 8.3124 21.282 8.2584 21.282C8.0964 21.282 7.9434 21.201 7.8624 21.057L6.0624 17.943C5.9544 17.745 5.9994 17.502 6.1704 17.367L8.0694 15.882C8.0334 15.594 8.0064 15.297 8.0064 15C8.0064 14.703 8.0334 14.406 8.0694 14.118L6.1704 12.633C5.9994 12.498 5.9454 12.255 6.0624 12.057L7.8624 8.943C7.9434 8.799 8.0964 8.718 8.2494 8.718C8.3034 8.718 8.3574 8.727 8.4114 8.745L10.6524 9.645C11.1204 9.294 11.6244 8.988 12.1734 8.763L12.5154 6.378C12.5424 6.162 12.7314 6 12.9564 6H16.5564C16.7814 6 16.9704 6.162 16.9974 6.378L17.3394 8.763C17.8884 8.988 18.3924 9.285 18.8604 9.645L21.1014 8.745C21.1464 8.727 21.2004 8.718 21.2544 8.718C21.4164 8.718 21.5694 8.799 21.6504 8.943L23.4504 12.057C23.5584 12.255 23.5134 12.498 23.3424 12.633L21.4434 14.118C21.4794 14.406 21.5064 14.694 21.5064 15ZM19.7063 15C19.7063 14.811 19.6973 14.622 19.6613 14.343L19.5353 13.326L20.3363 12.696L21.2993 11.931L20.6693 10.842L19.5263 11.301L18.5723 11.688L17.7533 11.058C17.3933 10.788 17.0333 10.581 16.6463 10.419L15.6923 10.032L15.5483 9.015L15.3773 7.8H14.1263L13.9463 9.015L13.8023 10.032L12.8483 10.419C12.4793 10.572 12.1103 10.788 11.7233 11.076L10.9133 11.688L9.9773 11.31L8.8343 10.851L8.2043 11.94L9.1763 12.696L9.9773 13.326L9.8513 14.343C9.8243 14.613 9.8063 14.82 9.8063 15C9.8063 15.18 9.8243 15.387 9.8513 15.666L9.9773 16.683L9.1763 17.313L8.2043 18.069L8.8343 19.158L9.9773 18.699L10.9313 18.312L11.7503 18.942C12.1103 19.212 12.4703 19.419 12.8573 19.581L13.8113 19.968L13.9553 20.985L14.1263 22.2H15.3863L15.5663 20.985L15.7103 19.968L16.6643 19.581C17.0333 19.428 17.4023 19.212 17.7893 18.924L18.5993 18.312L19.5353 18.69L20.6783 19.149L21.3083 18.06L20.3363 17.304L19.5353 16.674L19.6613 15.657C19.6883 15.387 19.7063 15.189 19.7063 15ZM14.7563 11.4C12.7673 11.4 11.1563 13.011 11.1563 15C11.1563 16.989 12.7673 18.6 14.7563 18.6C16.7453 18.6 18.3563 16.989 18.3563 15C18.3563 13.011 16.7453 11.4 14.7563 11.4ZM12.9563 15C12.9563 15.99 13.7663 16.8 14.7563 16.8C15.7463 16.8 16.5563 15.99 16.5563 15C16.5563 14.01 15.7463 13.2 14.7563 13.2C13.7663 13.2 12.9563 14.01 12.9563 15Z" fill="white"/>
</svg>
